<mxfile host="Electron" modified="2025-04-20T06:07:25.632Z" agent="Mozilla/5.0 (Windows NT 10.0; Win64; x64) AppleWebKit/537.36 (KHTML, like Gecko) draw.io/21.6.8 Chrome/114.0.5735.289 Electron/25.5.0 Safari/537.36" etag="X14JD9FxVRItSMx-CEB2" version="21.6.8" type="device" pages="2">
  <diagram id="kovgrVKgd8k63zaNEZPx" name="Page-3">
    <mxGraphModel dx="1434" dy="870" grid="1" gridSize="10" guides="1" tooltips="1" connect="1" arrows="1" fold="1" page="1" pageScale="1" pageWidth="2339" pageHeight="3300" math="0" shadow="0">
      <root>
        <mxCell id="0" />
        <mxCell id="1" parent="0" />
        <mxCell id="bpVMH43P0phzhl90AfeX-4" value="Role" style="ellipse;whiteSpace=wrap;html=1;align=center;" parent="1" vertex="1">
          <mxGeometry x="320" y="600" width="100" height="40" as="geometry" />
        </mxCell>
        <mxCell id="bpVMH43P0phzhl90AfeX-5" value="DOB" style="ellipse;whiteSpace=wrap;html=1;align=center;" parent="1" vertex="1">
          <mxGeometry x="320" y="680" width="100" height="40" as="geometry" />
        </mxCell>
        <mxCell id="bpVMH43P0phzhl90AfeX-7" value="Mobilenumber" style="ellipse;whiteSpace=wrap;html=1;align=center;" parent="1" vertex="1">
          <mxGeometry x="220" y="460" width="100" height="40" as="geometry" />
        </mxCell>
        <mxCell id="bpVMH43P0phzhl90AfeX-8" value="Email" style="ellipse;whiteSpace=wrap;html=1;align=center;" parent="1" vertex="1">
          <mxGeometry x="79" y="370" width="100" height="40" as="geometry" />
        </mxCell>
        <mxCell id="bpVMH43P0phzhl90AfeX-12" value="FullName" style="ellipse;whiteSpace=wrap;html=1;align=center;" parent="1" vertex="1">
          <mxGeometry x="60" y="680" width="100" height="40" as="geometry" />
        </mxCell>
        <mxCell id="bpVMH43P0phzhl90AfeX-13" value="CreatedAt" style="ellipse;whiteSpace=wrap;html=1;align=center;" parent="1" vertex="1">
          <mxGeometry x="60" y="600" width="100" height="40" as="geometry" />
        </mxCell>
        <mxCell id="bpVMH43P0phzhl90AfeX-14" value="Password" style="ellipse;whiteSpace=wrap;html=1;align=center;" parent="1" vertex="1">
          <mxGeometry x="60" y="520" width="100" height="40" as="geometry" />
        </mxCell>
        <mxCell id="bpVMH43P0phzhl90AfeX-16" value="User" style="whiteSpace=wrap;html=1;align=center;" parent="1" vertex="1">
          <mxGeometry x="190" y="560" width="100" height="40" as="geometry" />
        </mxCell>
        <mxCell id="bpVMH43P0phzhl90AfeX-17" value="UserID" style="ellipse;whiteSpace=wrap;html=1;align=center;fontStyle=4;" parent="1" vertex="1">
          <mxGeometry x="60" y="440" width="100" height="40" as="geometry" />
        </mxCell>
        <mxCell id="bpVMH43P0phzhl90AfeX-19" value="&lt;span style=&quot;border-bottom: 1px dotted&quot;&gt;UserID&lt;/span&gt;" style="ellipse;whiteSpace=wrap;html=1;align=center;" parent="1" vertex="1">
          <mxGeometry x="854.5" y="440" width="100" height="40" as="geometry" />
        </mxCell>
        <mxCell id="bpVMH43P0phzhl90AfeX-21" value="LogInID" style="ellipse;whiteSpace=wrap;html=1;align=center;fontStyle=4;" parent="1" vertex="1">
          <mxGeometry x="1140" y="505" width="100" height="40" as="geometry" />
        </mxCell>
        <mxCell id="bpVMH43P0phzhl90AfeX-22" value="Status" style="ellipse;whiteSpace=wrap;html=1;align=center;" parent="1" vertex="1">
          <mxGeometry x="1100.5" y="440" width="100" height="40" as="geometry" />
        </mxCell>
        <mxCell id="bpVMH43P0phzhl90AfeX-23" value="LogInTime" style="ellipse;whiteSpace=wrap;html=1;align=center;" parent="1" vertex="1">
          <mxGeometry x="970.5" y="440" width="100" height="40" as="geometry" />
        </mxCell>
        <mxCell id="bpVMH43P0phzhl90AfeX-24" value="LogInAttempts" style="whiteSpace=wrap;html=1;align=center;" parent="1" vertex="1">
          <mxGeometry x="910.5" y="560" width="100" height="40" as="geometry" />
        </mxCell>
        <mxCell id="bpVMH43P0phzhl90AfeX-25" value="" style="endArrow=none;html=1;rounded=0;entryX=0;entryY=1;entryDx=0;entryDy=0;exitX=0.65;exitY=0.025;exitDx=0;exitDy=0;exitPerimeter=0;" parent="1" source="bpVMH43P0phzhl90AfeX-12" target="bpVMH43P0phzhl90AfeX-16" edge="1">
          <mxGeometry relative="1" as="geometry">
            <mxPoint x="150" y="640" as="sourcePoint" />
            <mxPoint x="310" y="640" as="targetPoint" />
          </mxGeometry>
        </mxCell>
        <mxCell id="bpVMH43P0phzhl90AfeX-26" value="" style="endArrow=none;html=1;rounded=0;entryX=0;entryY=0;entryDx=0;entryDy=0;exitX=1;exitY=1;exitDx=0;exitDy=0;" parent="1" source="bpVMH43P0phzhl90AfeX-16" target="bpVMH43P0phzhl90AfeX-5" edge="1">
          <mxGeometry relative="1" as="geometry">
            <mxPoint x="150" y="640" as="sourcePoint" />
            <mxPoint x="310" y="640" as="targetPoint" />
          </mxGeometry>
        </mxCell>
        <mxCell id="bpVMH43P0phzhl90AfeX-27" value="" style="endArrow=none;html=1;rounded=0;entryX=0;entryY=0;entryDx=0;entryDy=0;exitX=1;exitY=0.75;exitDx=0;exitDy=0;" parent="1" source="bpVMH43P0phzhl90AfeX-16" target="bpVMH43P0phzhl90AfeX-4" edge="1">
          <mxGeometry relative="1" as="geometry">
            <mxPoint x="150" y="640" as="sourcePoint" />
            <mxPoint x="310" y="640" as="targetPoint" />
          </mxGeometry>
        </mxCell>
        <mxCell id="bpVMH43P0phzhl90AfeX-28" value="" style="endArrow=none;html=1;rounded=0;exitX=0.5;exitY=0;exitDx=0;exitDy=0;entryX=0;entryY=0.75;entryDx=0;entryDy=0;" parent="1" source="bpVMH43P0phzhl90AfeX-13" target="bpVMH43P0phzhl90AfeX-16" edge="1">
          <mxGeometry relative="1" as="geometry">
            <mxPoint x="150" y="640" as="sourcePoint" />
            <mxPoint x="310" y="640" as="targetPoint" />
          </mxGeometry>
        </mxCell>
        <mxCell id="bpVMH43P0phzhl90AfeX-29" value="" style="endArrow=none;html=1;rounded=0;entryX=0.5;entryY=1;entryDx=0;entryDy=0;" parent="1" source="bpVMH43P0phzhl90AfeX-16" target="bpVMH43P0phzhl90AfeX-7" edge="1">
          <mxGeometry relative="1" as="geometry">
            <mxPoint x="346.5" y="560" as="sourcePoint" />
            <mxPoint x="529" y="450" as="targetPoint" />
          </mxGeometry>
        </mxCell>
        <mxCell id="bpVMH43P0phzhl90AfeX-30" value="" style="endArrow=none;html=1;rounded=0;exitX=0.5;exitY=1;exitDx=0;exitDy=0;entryX=0;entryY=0.25;entryDx=0;entryDy=0;" parent="1" source="bpVMH43P0phzhl90AfeX-14" target="bpVMH43P0phzhl90AfeX-16" edge="1">
          <mxGeometry relative="1" as="geometry">
            <mxPoint x="150" y="640" as="sourcePoint" />
            <mxPoint x="310" y="640" as="targetPoint" />
          </mxGeometry>
        </mxCell>
        <mxCell id="bpVMH43P0phzhl90AfeX-31" value="" style="endArrow=none;html=1;rounded=0;entryX=0.5;entryY=1;entryDx=0;entryDy=0;exitX=0.333;exitY=-0.065;exitDx=0;exitDy=0;exitPerimeter=0;" parent="1" source="bpVMH43P0phzhl90AfeX-16" target="bpVMH43P0phzhl90AfeX-8" edge="1">
          <mxGeometry relative="1" as="geometry">
            <mxPoint x="150" y="640" as="sourcePoint" />
            <mxPoint x="310" y="640" as="targetPoint" />
          </mxGeometry>
        </mxCell>
        <mxCell id="bpVMH43P0phzhl90AfeX-32" value="" style="endArrow=none;html=1;rounded=0;entryX=0.5;entryY=0;entryDx=0;entryDy=0;" parent="1" target="bpVMH43P0phzhl90AfeX-16" edge="1">
          <mxGeometry relative="1" as="geometry">
            <mxPoint x="202" y="450" as="sourcePoint" />
            <mxPoint x="310" y="640" as="targetPoint" />
          </mxGeometry>
        </mxCell>
        <mxCell id="bpVMH43P0phzhl90AfeX-33" value="" style="endArrow=none;html=1;rounded=0;entryX=0.25;entryY=0;entryDx=0;entryDy=0;exitX=0.5;exitY=1;exitDx=0;exitDy=0;" parent="1" source="bpVMH43P0phzhl90AfeX-17" target="bpVMH43P0phzhl90AfeX-16" edge="1">
          <mxGeometry relative="1" as="geometry">
            <mxPoint x="150" y="490" as="sourcePoint" />
            <mxPoint x="310" y="490" as="targetPoint" />
          </mxGeometry>
        </mxCell>
        <mxCell id="bpVMH43P0phzhl90AfeX-35" value="" style="endArrow=none;html=1;rounded=0;entryX=0.5;entryY=1;entryDx=0;entryDy=0;exitX=0.75;exitY=0;exitDx=0;exitDy=0;" parent="1" source="bpVMH43P0phzhl90AfeX-24" target="bpVMH43P0phzhl90AfeX-23" edge="1">
          <mxGeometry width="50" height="50" relative="1" as="geometry">
            <mxPoint x="920.5" y="520" as="sourcePoint" />
            <mxPoint x="970.5" y="470" as="targetPoint" />
          </mxGeometry>
        </mxCell>
        <mxCell id="bpVMH43P0phzhl90AfeX-36" value="" style="endArrow=none;html=1;rounded=0;exitX=0.5;exitY=1;exitDx=0;exitDy=0;entryX=0.25;entryY=0;entryDx=0;entryDy=0;" parent="1" source="bpVMH43P0phzhl90AfeX-19" target="bpVMH43P0phzhl90AfeX-24" edge="1">
          <mxGeometry width="50" height="50" relative="1" as="geometry">
            <mxPoint x="920.5" y="520" as="sourcePoint" />
            <mxPoint x="955.5" y="561" as="targetPoint" />
          </mxGeometry>
        </mxCell>
        <mxCell id="bpVMH43P0phzhl90AfeX-37" value="" style="endArrow=none;html=1;rounded=0;entryX=0.5;entryY=1;entryDx=0;entryDy=0;exitX=1;exitY=0;exitDx=0;exitDy=0;" parent="1" source="bpVMH43P0phzhl90AfeX-24" target="bpVMH43P0phzhl90AfeX-22" edge="1">
          <mxGeometry width="50" height="50" relative="1" as="geometry">
            <mxPoint x="920.5" y="520" as="sourcePoint" />
            <mxPoint x="970.5" y="470" as="targetPoint" />
          </mxGeometry>
        </mxCell>
        <mxCell id="bpVMH43P0phzhl90AfeX-38" value="" style="endArrow=none;html=1;rounded=0;entryX=1;entryY=0.5;entryDx=0;entryDy=0;exitX=0.5;exitY=1;exitDx=0;exitDy=0;" parent="1" source="bpVMH43P0phzhl90AfeX-21" target="bpVMH43P0phzhl90AfeX-24" edge="1">
          <mxGeometry width="50" height="50" relative="1" as="geometry">
            <mxPoint x="1166.5" y="560" as="sourcePoint" />
            <mxPoint x="1040" y="590" as="targetPoint" />
          </mxGeometry>
        </mxCell>
        <mxCell id="bpVMH43P0phzhl90AfeX-44" value="AccountID" style="ellipse;whiteSpace=wrap;html=1;align=center;fontStyle=4;" parent="1" vertex="1">
          <mxGeometry x="50" y="1078" width="100" height="40" as="geometry" />
        </mxCell>
        <mxCell id="bpVMH43P0phzhl90AfeX-45" value="&lt;span style=&quot;border-bottom: 1px dotted&quot;&gt;UPIID&lt;/span&gt;" style="ellipse;whiteSpace=wrap;html=1;align=center;" parent="1" vertex="1">
          <mxGeometry x="20" y="998" width="100" height="40" as="geometry" />
        </mxCell>
        <mxCell id="bpVMH43P0phzhl90AfeX-46" value="AccountNumber" style="ellipse;whiteSpace=wrap;html=1;align=center;" parent="1" vertex="1">
          <mxGeometry x="309" y="1078" width="100" height="40" as="geometry" />
        </mxCell>
        <mxCell id="bpVMH43P0phzhl90AfeX-47" value="Status" style="ellipse;whiteSpace=wrap;html=1;align=center;" parent="1" vertex="1">
          <mxGeometry x="309" y="1158" width="100" height="40" as="geometry" />
        </mxCell>
        <mxCell id="bpVMH43P0phzhl90AfeX-48" value="IFSC_Code" style="ellipse;whiteSpace=wrap;html=1;align=center;" parent="1" vertex="1">
          <mxGeometry x="60" y="1158" width="100" height="40" as="geometry" />
        </mxCell>
        <mxCell id="bpVMH43P0phzhl90AfeX-49" value="BankName" style="ellipse;whiteSpace=wrap;html=1;align=center;" parent="1" vertex="1">
          <mxGeometry x="309" y="998" width="100" height="40" as="geometry" />
        </mxCell>
        <mxCell id="bpVMH43P0phzhl90AfeX-50" value="Account" style="whiteSpace=wrap;html=1;align=center;" parent="1" vertex="1">
          <mxGeometry x="179" y="1078" width="100" height="40" as="geometry" />
        </mxCell>
        <mxCell id="bpVMH43P0phzhl90AfeX-51" value="" style="endArrow=none;html=1;rounded=0;exitX=0.75;exitY=0;exitDx=0;exitDy=0;entryX=0.5;entryY=1;entryDx=0;entryDy=0;" parent="1" source="bpVMH43P0phzhl90AfeX-50" target="bpVMH43P0phzhl90AfeX-49" edge="1">
          <mxGeometry relative="1" as="geometry">
            <mxPoint x="249" y="1008" as="sourcePoint" />
            <mxPoint x="409" y="1008" as="targetPoint" />
          </mxGeometry>
        </mxCell>
        <mxCell id="bpVMH43P0phzhl90AfeX-52" value="" style="endArrow=none;html=1;rounded=0;exitX=1;exitY=0.5;exitDx=0;exitDy=0;entryX=0;entryY=0.5;entryDx=0;entryDy=0;" parent="1" source="bpVMH43P0phzhl90AfeX-50" target="bpVMH43P0phzhl90AfeX-46" edge="1">
          <mxGeometry relative="1" as="geometry">
            <mxPoint x="249" y="1008" as="sourcePoint" />
            <mxPoint x="409" y="1008" as="targetPoint" />
          </mxGeometry>
        </mxCell>
        <mxCell id="bpVMH43P0phzhl90AfeX-53" value="" style="endArrow=none;html=1;rounded=0;exitX=0.75;exitY=1;exitDx=0;exitDy=0;entryX=0.5;entryY=0;entryDx=0;entryDy=0;" parent="1" source="bpVMH43P0phzhl90AfeX-50" target="bpVMH43P0phzhl90AfeX-47" edge="1">
          <mxGeometry relative="1" as="geometry">
            <mxPoint x="229" y="1228" as="sourcePoint" />
            <mxPoint x="389" y="1228" as="targetPoint" />
          </mxGeometry>
        </mxCell>
        <mxCell id="bpVMH43P0phzhl90AfeX-54" value="" style="endArrow=none;html=1;rounded=0;exitX=0.5;exitY=0;exitDx=0;exitDy=0;entryX=0.25;entryY=1;entryDx=0;entryDy=0;" parent="1" source="bpVMH43P0phzhl90AfeX-48" target="bpVMH43P0phzhl90AfeX-50" edge="1">
          <mxGeometry relative="1" as="geometry">
            <mxPoint x="109" y="1148" as="sourcePoint" />
            <mxPoint x="409" y="1008" as="targetPoint" />
          </mxGeometry>
        </mxCell>
        <mxCell id="bpVMH43P0phzhl90AfeX-55" value="" style="endArrow=none;html=1;rounded=0;exitX=1;exitY=0.5;exitDx=0;exitDy=0;" parent="1" target="bpVMH43P0phzhl90AfeX-50" edge="1">
          <mxGeometry relative="1" as="geometry">
            <mxPoint x="149" y="1098" as="sourcePoint" />
            <mxPoint x="179" y="1098" as="targetPoint" />
          </mxGeometry>
        </mxCell>
        <mxCell id="bpVMH43P0phzhl90AfeX-56" value="" style="endArrow=none;html=1;rounded=0;exitX=0.5;exitY=1;exitDx=0;exitDy=0;entryX=0.25;entryY=0;entryDx=0;entryDy=0;" parent="1" target="bpVMH43P0phzhl90AfeX-50" edge="1">
          <mxGeometry relative="1" as="geometry">
            <mxPoint x="99" y="1038" as="sourcePoint" />
            <mxPoint x="329" y="1037.35" as="targetPoint" />
          </mxGeometry>
        </mxCell>
        <mxCell id="LtRqbfF2QvWJy3luIIHw-1" value="&lt;span style=&quot;border-bottom: 1px dotted&quot;&gt;RecipientID&lt;/span&gt;" style="ellipse;whiteSpace=wrap;html=1;align=center;" parent="1" vertex="1">
          <mxGeometry x="614.5" y="1280" width="100" height="40" as="geometry" />
        </mxCell>
        <mxCell id="LtRqbfF2QvWJy3luIIHw-4" value="PaymentID" style="ellipse;whiteSpace=wrap;html=1;align=center;fontStyle=4;" parent="1" vertex="1">
          <mxGeometry x="814.5" y="1320" width="100" height="40" as="geometry" />
        </mxCell>
        <mxCell id="LtRqbfF2QvWJy3luIIHw-5" value="Date" style="ellipse;whiteSpace=wrap;html=1;align=center;" parent="1" vertex="1">
          <mxGeometry x="984.5" y="1350" width="100" height="40" as="geometry" />
        </mxCell>
        <mxCell id="LtRqbfF2QvWJy3luIIHw-6" value="Balance" style="ellipse;whiteSpace=wrap;html=1;align=center;" parent="1" vertex="1">
          <mxGeometry x="970.5" y="1078" width="100" height="40" as="geometry" />
        </mxCell>
        <mxCell id="LtRqbfF2QvWJy3luIIHw-8" value="Status" style="ellipse;whiteSpace=wrap;html=1;align=center;" parent="1" vertex="1">
          <mxGeometry x="1014.5" y="1280" width="100" height="40" as="geometry" />
        </mxCell>
        <mxCell id="LtRqbfF2QvWJy3luIIHw-9" value="Type" style="ellipse;whiteSpace=wrap;html=1;align=center;" parent="1" vertex="1">
          <mxGeometry x="754.5" y="1120" width="100" height="40" as="geometry" />
        </mxCell>
        <mxCell id="LtRqbfF2QvWJy3luIIHw-10" value="Amount" style="ellipse;whiteSpace=wrap;html=1;align=center;" parent="1" vertex="1">
          <mxGeometry x="884.5" y="1120" width="100" height="40" as="geometry" />
        </mxCell>
        <mxCell id="LtRqbfF2QvWJy3luIIHw-11" value="&lt;span style=&quot;border-bottom: 1px dotted&quot;&gt;SenderID&lt;/span&gt;" style="ellipse;whiteSpace=wrap;html=1;align=center;" parent="1" vertex="1">
          <mxGeometry x="614.5" y="1118" width="100" height="40" as="geometry" />
        </mxCell>
        <mxCell id="LtRqbfF2QvWJy3luIIHw-12" value="Payment" style="whiteSpace=wrap;html=1;align=center;" parent="1" vertex="1">
          <mxGeometry x="814.5" y="1218" width="100" height="40" as="geometry" />
        </mxCell>
        <mxCell id="LtRqbfF2QvWJy3luIIHw-15" value="" style="endArrow=none;html=1;rounded=0;exitX=0.5;exitY=1;exitDx=0;exitDy=0;entryX=0.25;entryY=0;entryDx=0;entryDy=0;" parent="1" source="LtRqbfF2QvWJy3luIIHw-9" target="LtRqbfF2QvWJy3luIIHw-12" edge="1">
          <mxGeometry relative="1" as="geometry">
            <mxPoint x="781.5" y="1118" as="sourcePoint" />
            <mxPoint x="941.5" y="1118" as="targetPoint" />
          </mxGeometry>
        </mxCell>
        <mxCell id="LtRqbfF2QvWJy3luIIHw-16" value="" style="endArrow=none;html=1;rounded=0;exitX=0.75;exitY=0;exitDx=0;exitDy=0;entryX=0.5;entryY=1;entryDx=0;entryDy=0;" parent="1" source="LtRqbfF2QvWJy3luIIHw-12" target="LtRqbfF2QvWJy3luIIHw-10" edge="1">
          <mxGeometry relative="1" as="geometry">
            <mxPoint x="781.5" y="1118" as="sourcePoint" />
            <mxPoint x="941.5" y="1118" as="targetPoint" />
          </mxGeometry>
        </mxCell>
        <mxCell id="LtRqbfF2QvWJy3luIIHw-17" value="" style="endArrow=none;html=1;rounded=0;exitX=1;exitY=0.5;exitDx=0;exitDy=0;entryX=0;entryY=0.5;entryDx=0;entryDy=0;" parent="1" source="LtRqbfF2QvWJy3luIIHw-11" target="LtRqbfF2QvWJy3luIIHw-12" edge="1">
          <mxGeometry relative="1" as="geometry">
            <mxPoint x="781.5" y="1118" as="sourcePoint" />
            <mxPoint x="941.5" y="1118" as="targetPoint" />
          </mxGeometry>
        </mxCell>
        <mxCell id="LtRqbfF2QvWJy3luIIHw-18" value="" style="endArrow=none;html=1;rounded=0;exitX=1;exitY=0;exitDx=0;exitDy=0;entryX=0.5;entryY=1;entryDx=0;entryDy=0;" parent="1" source="LtRqbfF2QvWJy3luIIHw-12" target="LtRqbfF2QvWJy3luIIHw-6" edge="1">
          <mxGeometry relative="1" as="geometry">
            <mxPoint x="781.5" y="1118" as="sourcePoint" />
            <mxPoint x="941.5" y="1118" as="targetPoint" />
          </mxGeometry>
        </mxCell>
        <mxCell id="LtRqbfF2QvWJy3luIIHw-19" value="" style="endArrow=none;html=1;rounded=0;exitX=0.5;exitY=0;exitDx=0;exitDy=0;entryX=0.5;entryY=1;entryDx=0;entryDy=0;" parent="1" source="LtRqbfF2QvWJy3luIIHw-4" target="LtRqbfF2QvWJy3luIIHw-12" edge="1">
          <mxGeometry relative="1" as="geometry">
            <mxPoint x="781.5" y="1118" as="sourcePoint" />
            <mxPoint x="941.5" y="1118" as="targetPoint" />
          </mxGeometry>
        </mxCell>
        <mxCell id="LtRqbfF2QvWJy3luIIHw-20" value="" style="endArrow=none;html=1;rounded=0;exitX=1;exitY=0.5;exitDx=0;exitDy=0;entryX=0;entryY=1;entryDx=0;entryDy=0;" parent="1" source="LtRqbfF2QvWJy3luIIHw-1" target="LtRqbfF2QvWJy3luIIHw-12" edge="1">
          <mxGeometry relative="1" as="geometry">
            <mxPoint x="781.5" y="1118" as="sourcePoint" />
            <mxPoint x="941.5" y="1118" as="targetPoint" />
          </mxGeometry>
        </mxCell>
        <mxCell id="LtRqbfF2QvWJy3luIIHw-22" value="" style="endArrow=none;html=1;rounded=0;exitX=1;exitY=1;exitDx=0;exitDy=0;entryX=0;entryY=0.5;entryDx=0;entryDy=0;" parent="1" source="LtRqbfF2QvWJy3luIIHw-12" target="LtRqbfF2QvWJy3luIIHw-8" edge="1">
          <mxGeometry relative="1" as="geometry">
            <mxPoint x="781.5" y="1118" as="sourcePoint" />
            <mxPoint x="941.5" y="1118" as="targetPoint" />
          </mxGeometry>
        </mxCell>
        <mxCell id="LtRqbfF2QvWJy3luIIHw-23" value="" style="endArrow=none;html=1;rounded=0;exitX=0.75;exitY=1;exitDx=0;exitDy=0;entryX=0.065;entryY=0.35;entryDx=0;entryDy=0;entryPerimeter=0;" parent="1" source="LtRqbfF2QvWJy3luIIHw-12" target="LtRqbfF2QvWJy3luIIHw-5" edge="1">
          <mxGeometry relative="1" as="geometry">
            <mxPoint x="781.5" y="1118" as="sourcePoint" />
            <mxPoint x="941.5" y="1118" as="targetPoint" />
          </mxGeometry>
        </mxCell>
        <mxCell id="LtRqbfF2QvWJy3luIIHw-25" value="RecievedAt" style="ellipse;whiteSpace=wrap;html=1;align=center;" parent="1" vertex="1">
          <mxGeometry x="1370" y="1058" width="100" height="40" as="geometry" />
        </mxCell>
        <mxCell id="LtRqbfF2QvWJy3luIIHw-26" value="CoupenID" style="ellipse;whiteSpace=wrap;html=1;align=center;fontStyle=4;" parent="1" vertex="1">
          <mxGeometry x="1500" y="1058" width="100" height="40" as="geometry" />
        </mxCell>
        <mxCell id="LtRqbfF2QvWJy3luIIHw-27" value="&lt;span style=&quot;border-bottom: 1px dotted&quot;&gt;PaymentID&lt;/span&gt;" style="ellipse;whiteSpace=wrap;html=1;align=center;" parent="1" vertex="1">
          <mxGeometry x="1240" y="1058" width="100" height="40" as="geometry" />
        </mxCell>
        <mxCell id="LtRqbfF2QvWJy3luIIHw-29" value="Amount" style="ellipse;whiteSpace=wrap;html=1;align=center;" parent="1" vertex="1">
          <mxGeometry x="1291" y="1218" width="100" height="40" as="geometry" />
        </mxCell>
        <mxCell id="LtRqbfF2QvWJy3luIIHw-30" value="ExpiryDate" style="ellipse;whiteSpace=wrap;html=1;align=center;" parent="1" vertex="1">
          <mxGeometry x="1500" y="1138" width="100" height="40" as="geometry" />
        </mxCell>
        <mxCell id="LtRqbfF2QvWJy3luIIHw-31" value="Coupen" style="whiteSpace=wrap;html=1;align=center;" parent="1" vertex="1">
          <mxGeometry x="1370" y="1138" width="100" height="40" as="geometry" />
        </mxCell>
        <mxCell id="LtRqbfF2QvWJy3luIIHw-32" value="Type" style="ellipse;whiteSpace=wrap;html=1;align=center;" parent="1" vertex="1">
          <mxGeometry x="1500" y="1218" width="100" height="40" as="geometry" />
        </mxCell>
        <mxCell id="LtRqbfF2QvWJy3luIIHw-33" value="" style="endArrow=none;html=1;rounded=0;exitX=0.5;exitY=1;exitDx=0;exitDy=0;entryX=0.697;entryY=0.004;entryDx=0;entryDy=0;entryPerimeter=0;" parent="1" source="LtRqbfF2QvWJy3luIIHw-26" target="LtRqbfF2QvWJy3luIIHw-31" edge="1">
          <mxGeometry relative="1" as="geometry">
            <mxPoint x="1390" y="1128" as="sourcePoint" />
            <mxPoint x="1550" y="1128" as="targetPoint" />
          </mxGeometry>
        </mxCell>
        <mxCell id="LtRqbfF2QvWJy3luIIHw-34" value="" style="endArrow=none;html=1;rounded=0;entryX=0.5;entryY=0;entryDx=0;entryDy=0;entryPerimeter=0;" parent="1" source="LtRqbfF2QvWJy3luIIHw-25" target="LtRqbfF2QvWJy3luIIHw-31" edge="1">
          <mxGeometry relative="1" as="geometry">
            <mxPoint x="1390" y="1128" as="sourcePoint" />
            <mxPoint x="1550" y="1128" as="targetPoint" />
          </mxGeometry>
        </mxCell>
        <mxCell id="LtRqbfF2QvWJy3luIIHw-35" value="" style="endArrow=none;html=1;rounded=0;entryX=0;entryY=0.5;entryDx=0;entryDy=0;exitX=1;exitY=0.5;exitDx=0;exitDy=0;" parent="1" source="LtRqbfF2QvWJy3luIIHw-31" target="LtRqbfF2QvWJy3luIIHw-30" edge="1">
          <mxGeometry relative="1" as="geometry">
            <mxPoint x="1390" y="1128" as="sourcePoint" />
            <mxPoint x="1550" y="1128" as="targetPoint" />
          </mxGeometry>
        </mxCell>
        <mxCell id="LtRqbfF2QvWJy3luIIHw-36" value="" style="endArrow=none;html=1;rounded=0;entryX=0;entryY=0.5;entryDx=0;entryDy=0;exitX=0.5;exitY=1;exitDx=0;exitDy=0;" parent="1" source="LtRqbfF2QvWJy3luIIHw-27" target="LtRqbfF2QvWJy3luIIHw-31" edge="1">
          <mxGeometry relative="1" as="geometry">
            <mxPoint x="1300" y="1128" as="sourcePoint" />
            <mxPoint x="1550" y="1128" as="targetPoint" />
          </mxGeometry>
        </mxCell>
        <mxCell id="LtRqbfF2QvWJy3luIIHw-37" value="" style="endArrow=none;html=1;rounded=0;exitX=0.75;exitY=1;exitDx=0;exitDy=0;entryX=0.5;entryY=0;entryDx=0;entryDy=0;" parent="1" source="LtRqbfF2QvWJy3luIIHw-31" target="LtRqbfF2QvWJy3luIIHw-32" edge="1">
          <mxGeometry relative="1" as="geometry">
            <mxPoint x="1350" y="1348" as="sourcePoint" />
            <mxPoint x="1510" y="1348" as="targetPoint" />
          </mxGeometry>
        </mxCell>
        <mxCell id="LtRqbfF2QvWJy3luIIHw-38" value="" style="endArrow=none;html=1;rounded=0;exitX=0.5;exitY=0;exitDx=0;exitDy=0;entryX=0.5;entryY=1;entryDx=0;entryDy=0;" parent="1" source="LtRqbfF2QvWJy3luIIHw-29" target="LtRqbfF2QvWJy3luIIHw-31" edge="1">
          <mxGeometry relative="1" as="geometry">
            <mxPoint x="1390" y="1128" as="sourcePoint" />
            <mxPoint x="1550" y="1128" as="targetPoint" />
          </mxGeometry>
        </mxCell>
        <mxCell id="LtRqbfF2QvWJy3luIIHw-42" value="SecurityID" style="ellipse;whiteSpace=wrap;html=1;align=center;fontStyle=4;" parent="1" vertex="1">
          <mxGeometry x="50" y="760" width="100" height="40" as="geometry" />
        </mxCell>
        <mxCell id="LtRqbfF2QvWJy3luIIHw-43" value="TwoFactorAuth" style="ellipse;whiteSpace=wrap;html=1;align=center;" parent="1" vertex="1">
          <mxGeometry x="320" y="760" width="100" height="40" as="geometry" />
        </mxCell>
        <mxCell id="LtRqbfF2QvWJy3luIIHw-44" value="" style="endArrow=none;html=1;rounded=0;exitX=0.75;exitY=1;exitDx=0;exitDy=0;entryX=0;entryY=0;entryDx=0;entryDy=0;" parent="1" source="bpVMH43P0phzhl90AfeX-16" target="LtRqbfF2QvWJy3luIIHw-43" edge="1">
          <mxGeometry relative="1" as="geometry">
            <mxPoint x="240" y="620" as="sourcePoint" />
            <mxPoint x="330" y="910" as="targetPoint" />
          </mxGeometry>
        </mxCell>
        <mxCell id="LtRqbfF2QvWJy3luIIHw-45" value="" style="endArrow=none;html=1;rounded=0;entryX=0.25;entryY=1;entryDx=0;entryDy=0;exitX=1;exitY=0;exitDx=0;exitDy=0;" parent="1" source="LtRqbfF2QvWJy3luIIHw-42" target="bpVMH43P0phzhl90AfeX-16" edge="1">
          <mxGeometry relative="1" as="geometry">
            <mxPoint x="170" y="910" as="sourcePoint" />
            <mxPoint x="215" y="600" as="targetPoint" />
          </mxGeometry>
        </mxCell>
        <mxCell id="LtRqbfF2QvWJy3luIIHw-47" value="FeedbackID" style="ellipse;whiteSpace=wrap;html=1;align=center;fontStyle=4;" parent="1" vertex="1">
          <mxGeometry x="1040" y="920" width="100" height="40" as="geometry" />
        </mxCell>
        <mxCell id="LtRqbfF2QvWJy3luIIHw-48" value="&lt;span style=&quot;border-bottom: 1px dotted&quot;&gt;UserID&lt;/span&gt;" style="ellipse;whiteSpace=wrap;html=1;align=center;" parent="1" vertex="1">
          <mxGeometry x="916.5" y="930" width="100" height="40" as="geometry" />
        </mxCell>
        <mxCell id="LtRqbfF2QvWJy3luIIHw-49" value="Message" style="ellipse;whiteSpace=wrap;html=1;align=center;" parent="1" vertex="1">
          <mxGeometry x="1040" y="840" width="100" height="40" as="geometry" />
        </mxCell>
        <mxCell id="LtRqbfF2QvWJy3luIIHw-50" value="Date" style="ellipse;whiteSpace=wrap;html=1;align=center;" parent="1" vertex="1">
          <mxGeometry x="786.5" y="730" width="100" height="40" as="geometry" />
        </mxCell>
        <mxCell id="LtRqbfF2QvWJy3luIIHw-51" value="Response" style="ellipse;whiteSpace=wrap;html=1;align=center;" parent="1" vertex="1">
          <mxGeometry x="1037" y="760" width="100" height="40" as="geometry" />
        </mxCell>
        <mxCell id="LtRqbfF2QvWJy3luIIHw-52" value="Status" style="ellipse;whiteSpace=wrap;html=1;align=center;" parent="1" vertex="1">
          <mxGeometry x="916.5" y="730" width="100" height="40" as="geometry" />
        </mxCell>
        <mxCell id="LtRqbfF2QvWJy3luIIHw-53" value="FeedBack" style="whiteSpace=wrap;html=1;align=center;" parent="1" vertex="1">
          <mxGeometry x="852.5" y="830" width="100" height="40" as="geometry" />
        </mxCell>
        <mxCell id="LtRqbfF2QvWJy3luIIHw-54" value="" style="endArrow=none;html=1;rounded=0;entryX=0.5;entryY=1;entryDx=0;entryDy=0;exitX=1;exitY=0;exitDx=0;exitDy=0;" parent="1" source="LtRqbfF2QvWJy3luIIHw-53" target="LtRqbfF2QvWJy3luIIHw-51" edge="1">
          <mxGeometry relative="1" as="geometry">
            <mxPoint x="861" y="799.3800000000001" as="sourcePoint" />
            <mxPoint x="1021" y="799.3800000000001" as="targetPoint" />
          </mxGeometry>
        </mxCell>
        <mxCell id="LtRqbfF2QvWJy3luIIHw-55" value="" style="endArrow=none;html=1;rounded=0;entryX=0;entryY=0.5;entryDx=0;entryDy=0;exitX=1;exitY=0.5;exitDx=0;exitDy=0;" parent="1" source="LtRqbfF2QvWJy3luIIHw-53" target="LtRqbfF2QvWJy3luIIHw-49" edge="1">
          <mxGeometry relative="1" as="geometry">
            <mxPoint x="891" y="910" as="sourcePoint" />
            <mxPoint x="1051" y="910" as="targetPoint" />
          </mxGeometry>
        </mxCell>
        <mxCell id="LtRqbfF2QvWJy3luIIHw-56" value="" style="endArrow=none;html=1;rounded=0;entryX=0.5;entryY=0;entryDx=0;entryDy=0;exitX=1;exitY=1;exitDx=0;exitDy=0;" parent="1" source="LtRqbfF2QvWJy3luIIHw-53" target="LtRqbfF2QvWJy3luIIHw-47" edge="1">
          <mxGeometry relative="1" as="geometry">
            <mxPoint x="831" y="950" as="sourcePoint" />
            <mxPoint x="991" y="950" as="targetPoint" />
          </mxGeometry>
        </mxCell>
        <mxCell id="LtRqbfF2QvWJy3luIIHw-57" value="" style="endArrow=none;html=1;rounded=0;exitX=0.5;exitY=0;exitDx=0;exitDy=0;entryX=0.75;entryY=1;entryDx=0;entryDy=0;" parent="1" source="LtRqbfF2QvWJy3luIIHw-48" target="LtRqbfF2QvWJy3luIIHw-53" edge="1">
          <mxGeometry relative="1" as="geometry">
            <mxPoint x="701" y="910" as="sourcePoint" />
            <mxPoint x="977" y="960" as="targetPoint" />
          </mxGeometry>
        </mxCell>
        <mxCell id="LtRqbfF2QvWJy3luIIHw-58" value="" style="endArrow=none;html=1;rounded=0;entryX=0.5;entryY=0;entryDx=0;entryDy=0;exitX=0.5;exitY=1;exitDx=0;exitDy=0;" parent="1" source="LtRqbfF2QvWJy3luIIHw-50" target="LtRqbfF2QvWJy3luIIHw-53" edge="1">
          <mxGeometry relative="1" as="geometry">
            <mxPoint x="737" y="859.69" as="sourcePoint" />
            <mxPoint x="897" y="859.69" as="targetPoint" />
          </mxGeometry>
        </mxCell>
        <mxCell id="LtRqbfF2QvWJy3luIIHw-59" value="" style="endArrow=none;html=1;rounded=0;exitX=0.5;exitY=1;exitDx=0;exitDy=0;entryX=0.75;entryY=0;entryDx=0;entryDy=0;" parent="1" source="LtRqbfF2QvWJy3luIIHw-52" target="LtRqbfF2QvWJy3luIIHw-53" edge="1">
          <mxGeometry relative="1" as="geometry">
            <mxPoint x="821" y="860" as="sourcePoint" />
            <mxPoint x="876.5" y="820" as="targetPoint" />
          </mxGeometry>
        </mxCell>
        <mxCell id="LtRqbfF2QvWJy3luIIHw-61" value="Role" style="ellipse;whiteSpace=wrap;html=1;align=center;" parent="1" vertex="1">
          <mxGeometry x="375.5" y="240" width="100" height="40" as="geometry" />
        </mxCell>
        <mxCell id="LtRqbfF2QvWJy3luIIHw-63" value="Password" style="ellipse;whiteSpace=wrap;html=1;align=center;" parent="1" vertex="1">
          <mxGeometry x="564.5" y="80" width="100" height="40" as="geometry" />
        </mxCell>
        <mxCell id="LtRqbfF2QvWJy3luIIHw-64" value="email" style="ellipse;whiteSpace=wrap;html=1;align=center;" parent="1" vertex="1">
          <mxGeometry x="584.5" y="140" width="100" height="40" as="geometry" />
        </mxCell>
        <mxCell id="LtRqbfF2QvWJy3luIIHw-65" value="UserID" style="ellipse;whiteSpace=wrap;html=1;align=center;" parent="1" vertex="1">
          <mxGeometry x="415.5" y="40" width="100" height="40" as="geometry" />
        </mxCell>
        <mxCell id="LtRqbfF2QvWJy3luIIHw-68" value="AdminID" style="ellipse;whiteSpace=wrap;html=1;align=center;fontStyle=4;" parent="1" vertex="1">
          <mxGeometry x="285.5" y="80" width="100" height="40" as="geometry" />
        </mxCell>
        <mxCell id="LtRqbfF2QvWJy3luIIHw-69" value="Admin" style="whiteSpace=wrap;html=1;align=center;" parent="1" vertex="1">
          <mxGeometry x="415.5" y="140" width="100" height="40" as="geometry" />
        </mxCell>
        <mxCell id="LtRqbfF2QvWJy3luIIHw-70" value="" style="endArrow=none;html=1;rounded=0;exitX=0.5;exitY=1;exitDx=0;exitDy=0;entryX=0;entryY=0;entryDx=0;entryDy=0;" parent="1" source="LtRqbfF2QvWJy3luIIHw-68" target="LtRqbfF2QvWJy3luIIHw-69" edge="1">
          <mxGeometry relative="1" as="geometry">
            <mxPoint x="355.5" y="10" as="sourcePoint" />
            <mxPoint x="515.5" y="10" as="targetPoint" />
          </mxGeometry>
        </mxCell>
        <mxCell id="LtRqbfF2QvWJy3luIIHw-71" value="" style="endArrow=none;html=1;rounded=0;exitX=0.5;exitY=0;exitDx=0;exitDy=0;entryX=0.5;entryY=1;entryDx=0;entryDy=0;" parent="1" source="LtRqbfF2QvWJy3luIIHw-61" edge="1">
          <mxGeometry relative="1" as="geometry">
            <mxPoint x="285.5" y="-80" as="sourcePoint" />
            <mxPoint x="425.5" y="180" as="targetPoint" />
          </mxGeometry>
        </mxCell>
        <mxCell id="LtRqbfF2QvWJy3luIIHw-72" value="" style="endArrow=none;html=1;rounded=0;entryX=0;entryY=0.5;entryDx=0;entryDy=0;exitX=1;exitY=0;exitDx=0;exitDy=0;" parent="1" source="LtRqbfF2QvWJy3luIIHw-69" target="LtRqbfF2QvWJy3luIIHw-63" edge="1">
          <mxGeometry relative="1" as="geometry">
            <mxPoint x="325.5" y="-80" as="sourcePoint" />
            <mxPoint x="485.5" y="-80" as="targetPoint" />
          </mxGeometry>
        </mxCell>
        <mxCell id="LtRqbfF2QvWJy3luIIHw-73" value="" style="endArrow=none;html=1;rounded=0;entryX=0.5;entryY=1;entryDx=0;entryDy=0;exitX=0.5;exitY=0;exitDx=0;exitDy=0;" parent="1" source="LtRqbfF2QvWJy3luIIHw-69" target="LtRqbfF2QvWJy3luIIHw-65" edge="1">
          <mxGeometry relative="1" as="geometry">
            <mxPoint x="465.5" y="130" as="sourcePoint" />
            <mxPoint x="545.5" y="70" as="targetPoint" />
          </mxGeometry>
        </mxCell>
        <mxCell id="LtRqbfF2QvWJy3luIIHw-74" value="" style="endArrow=none;html=1;rounded=0;entryX=1;entryY=0.5;entryDx=0;entryDy=0;exitX=0;exitY=0.5;exitDx=0;exitDy=0;" parent="1" source="LtRqbfF2QvWJy3luIIHw-64" target="LtRqbfF2QvWJy3luIIHw-69" edge="1">
          <mxGeometry relative="1" as="geometry">
            <mxPoint x="576.5" y="160" as="sourcePoint" />
            <mxPoint x="516.5" y="160" as="targetPoint" />
          </mxGeometry>
        </mxCell>
        <mxCell id="LtRqbfF2QvWJy3luIIHw-76" value="" style="edgeStyle=entityRelationEdgeStyle;fontSize=12;html=1;endArrow=ERzeroToMany;endFill=1;rounded=0;exitX=1;exitY=0.5;exitDx=0;exitDy=0;entryX=0;entryY=0.5;entryDx=0;entryDy=0;" parent="1" source="LtRqbfF2QvWJy3luIIHw-75" target="bpVMH43P0phzhl90AfeX-24" edge="1">
          <mxGeometry width="100" height="100" relative="1" as="geometry">
            <mxPoint x="444.5" y="650" as="sourcePoint" />
            <mxPoint x="874.5" y="600" as="targetPoint" />
          </mxGeometry>
        </mxCell>
        <mxCell id="LtRqbfF2QvWJy3luIIHw-82" value="" style="edgeStyle=entityRelationEdgeStyle;fontSize=12;html=1;endArrow=ERzeroToMany;endFill=1;rounded=0;entryX=0;entryY=0.5;entryDx=0;entryDy=0;" parent="1" target="LtRqbfF2QvWJy3luIIHw-75" edge="1">
          <mxGeometry width="100" height="100" relative="1" as="geometry">
            <mxPoint x="286.5" y="580" as="sourcePoint" />
            <mxPoint x="910.5" y="580" as="targetPoint" />
          </mxGeometry>
        </mxCell>
        <mxCell id="LtRqbfF2QvWJy3luIIHw-75" value="Attempts" style="shape=rhombus;perimeter=rhombusPerimeter;whiteSpace=wrap;html=1;align=center;" parent="1" vertex="1">
          <mxGeometry x="564.5" y="550" width="120" height="60" as="geometry" />
        </mxCell>
        <mxCell id="LtRqbfF2QvWJy3luIIHw-84" value="" style="edgeStyle=elbowEdgeStyle;fontSize=12;html=1;endArrow=ERzeroToMany;startArrow=ERzeroToOne;rounded=0;exitX=0;exitY=0.5;exitDx=0;exitDy=0;entryX=1;entryY=0;entryDx=0;entryDy=0;" parent="1" source="LtRqbfF2QvWJy3luIIHw-89" edge="1">
          <mxGeometry width="100" height="100" relative="1" as="geometry">
            <mxPoint x="614.5" y="660" as="sourcePoint" />
            <mxPoint x="290" y="570" as="targetPoint" />
          </mxGeometry>
        </mxCell>
        <mxCell id="LtRqbfF2QvWJy3luIIHw-85" value="" style="edgeStyle=orthogonalEdgeStyle;fontSize=12;html=1;endArrow=ERzeroToOne;startArrow=ERmandOne;rounded=0;exitX=1;exitY=0.5;exitDx=0;exitDy=0;entryX=0;entryY=0.75;entryDx=0;entryDy=0;" parent="1" source="LtRqbfF2QvWJy3luIIHw-86" target="LtRqbfF2QvWJy3luIIHw-31" edge="1">
          <mxGeometry width="100" height="100" relative="1" as="geometry">
            <mxPoint x="810" y="1086" as="sourcePoint" />
            <mxPoint x="970" y="886" as="targetPoint" />
          </mxGeometry>
        </mxCell>
        <mxCell id="LtRqbfF2QvWJy3luIIHw-87" value="" style="fontSize=12;html=1;endArrow=ERzeroToOne;startArrow=ERmandOne;rounded=0;exitX=1;exitY=0.5;exitDx=0;exitDy=0;entryX=0;entryY=0.5;entryDx=0;entryDy=0;edgeStyle=orthogonalEdgeStyle;" parent="1" target="LtRqbfF2QvWJy3luIIHw-86" edge="1">
          <mxGeometry width="100" height="100" relative="1" as="geometry">
            <mxPoint x="914.5" y="1240" as="sourcePoint" />
            <mxPoint x="1196.5" y="1130" as="targetPoint" />
          </mxGeometry>
        </mxCell>
        <mxCell id="LtRqbfF2QvWJy3luIIHw-86" value="Recieves" style="shape=rhombus;perimeter=rhombusPerimeter;whiteSpace=wrap;html=1;align=center;rotation=0;" parent="1" vertex="1">
          <mxGeometry x="1080.5" y="1108" width="120" height="60" as="geometry" />
        </mxCell>
        <mxCell id="LtRqbfF2QvWJy3luIIHw-90" value="" style="edgeStyle=orthogonalEdgeStyle;fontSize=12;html=1;endArrow=ERzeroToMany;startArrow=ERzeroToOne;rounded=0;entryX=1;entryY=0.5;entryDx=0;entryDy=0;exitX=0;exitY=0.5;exitDx=0;exitDy=0;" parent="1" source="LtRqbfF2QvWJy3luIIHw-53" target="LtRqbfF2QvWJy3luIIHw-89" edge="1">
          <mxGeometry width="100" height="100" relative="1" as="geometry">
            <mxPoint x="1184.5" y="750" as="sourcePoint" />
            <mxPoint x="930.5" y="720" as="targetPoint" />
          </mxGeometry>
        </mxCell>
        <mxCell id="LtRqbfF2QvWJy3luIIHw-89" value="Provides" style="shape=rhombus;perimeter=rhombusPerimeter;whiteSpace=wrap;html=1;align=center;" parent="1" vertex="1">
          <mxGeometry x="554.5" y="650" width="120" height="60" as="geometry" />
        </mxCell>
        <mxCell id="LtRqbfF2QvWJy3luIIHw-96" value="" style="fontSize=12;html=1;endArrow=ERzeroToMany;endFill=1;startArrow=ERzeroToMany;rounded=0;entryX=0;entryY=0.5;entryDx=0;entryDy=0;exitX=0.439;exitY=-0.065;exitDx=0;exitDy=0;edgeStyle=elbowEdgeStyle;exitPerimeter=0;" parent="1" target="LtRqbfF2QvWJy3luIIHw-69" edge="1">
          <mxGeometry width="100" height="100" relative="1" as="geometry">
            <mxPoint x="268.2000000000001" y="559.9999999999999" as="sourcePoint" />
            <mxPoint x="449.8000000000002" y="172.6000000000001" as="targetPoint" />
            <Array as="points">
              <mxPoint x="320.8" y="562.6" />
            </Array>
          </mxGeometry>
        </mxCell>
        <mxCell id="LtRqbfF2QvWJy3luIIHw-97" value="Manages" style="shape=rhombus;perimeter=rhombusPerimeter;whiteSpace=wrap;html=1;align=center;" parent="1" vertex="1">
          <mxGeometry x="255.5" y="320" width="120" height="60" as="geometry" />
        </mxCell>
        <mxCell id="LtRqbfF2QvWJy3luIIHw-98" value="" style="edgeStyle=elbowEdgeStyle;fontSize=12;html=1;endArrow=ERzeroToMany;endFill=1;startArrow=ERzeroToMany;rounded=0;entryX=0.75;entryY=1;entryDx=0;entryDy=0;exitX=0.5;exitY=0;exitDx=0;exitDy=0;elbow=vertical;" parent="1" source="LtRqbfF2QvWJy3luIIHw-99" target="LtRqbfF2QvWJy3luIIHw-69" edge="1">
          <mxGeometry width="100" height="100" relative="1" as="geometry">
            <mxPoint x="476.5" y="500" as="sourcePoint" />
            <mxPoint x="576.5" y="400" as="targetPoint" />
          </mxGeometry>
        </mxCell>
        <mxCell id="LtRqbfF2QvWJy3luIIHw-100" value="" style="fontSize=12;html=1;endArrow=ERzeroToMany;endFill=1;startArrow=ERzeroToMany;rounded=0;entryX=1;entryY=0.5;entryDx=0;entryDy=0;exitX=0.5;exitY=0;exitDx=0;exitDy=0;edgeStyle=elbowEdgeStyle;" parent="1" target="LtRqbfF2QvWJy3luIIHw-99" edge="1">
          <mxGeometry width="100" height="100" relative="1" as="geometry">
            <mxPoint x="910.5" y="570" as="sourcePoint" />
            <mxPoint x="752.5" y="379.9999999999999" as="targetPoint" />
          </mxGeometry>
        </mxCell>
        <mxCell id="LtRqbfF2QvWJy3luIIHw-99" value="Attempts" style="shape=rhombus;perimeter=rhombusPerimeter;whiteSpace=wrap;html=1;align=center;" parent="1" vertex="1">
          <mxGeometry x="654.5" y="340" width="120" height="60" as="geometry" />
        </mxCell>
        <mxCell id="LtRqbfF2QvWJy3luIIHw-101" value="" style="edgeStyle=elbowEdgeStyle;fontSize=12;html=1;endArrow=ERzeroToMany;startArrow=ERmandOne;rounded=0;entryX=0.5;entryY=1;entryDx=0;entryDy=0;exitX=0.5;exitY=0;exitDx=0;exitDy=0;elbow=vertical;" parent="1" source="LtRqbfF2QvWJy3luIIHw-102" target="bpVMH43P0phzhl90AfeX-50" edge="1">
          <mxGeometry width="100" height="100" relative="1" as="geometry">
            <mxPoint x="636.5" y="1240" as="sourcePoint" />
            <mxPoint x="736.5" y="1140" as="targetPoint" />
          </mxGeometry>
        </mxCell>
        <mxCell id="LtRqbfF2QvWJy3luIIHw-103" value="" style="edgeStyle=orthogonalEdgeStyle;fontSize=12;html=1;endArrow=ERzeroToMany;startArrow=ERmandOne;rounded=0;entryX=1;entryY=0.5;entryDx=0;entryDy=0;exitX=0.5;exitY=0;exitDx=0;exitDy=0;" parent="1" source="LtRqbfF2QvWJy3luIIHw-12" target="LtRqbfF2QvWJy3luIIHw-102" edge="1">
          <mxGeometry width="100" height="100" relative="1" as="geometry">
            <mxPoint x="864.5" y="1218" as="sourcePoint" />
            <mxPoint x="175.5" y="1118" as="targetPoint" />
          </mxGeometry>
        </mxCell>
        <mxCell id="LtRqbfF2QvWJy3luIIHw-102" value="Process" style="shape=rhombus;perimeter=rhombusPerimeter;whiteSpace=wrap;html=1;align=center;" parent="1" vertex="1">
          <mxGeometry x="444.5" y="1140" width="120" height="60" as="geometry" />
        </mxCell>
        <mxCell id="LtRqbfF2QvWJy3luIIHw-106" value="UPIID" style="ellipse;whiteSpace=wrap;html=1;align=center;fontStyle=4;" parent="1" vertex="1">
          <mxGeometry x="155.5" y="410" width="100" height="40" as="geometry" />
        </mxCell>
        <mxCell id="LtRqbfF2QvWJy3luIIHw-92" value="Owns" style="shape=rhombus;perimeter=rhombusPerimeter;whiteSpace=wrap;html=1;align=center;" parent="1" vertex="1">
          <mxGeometry x="179" y="870" width="120" height="60" as="geometry" />
        </mxCell>
        <mxCell id="AfAAXXYZHycmHdELkcjW-13" value="" style="fontSize=12;html=1;endArrow=ERzeroToMany;endFill=1;startArrow=ERzeroToMany;rounded=0;entryX=0.5;entryY=1;entryDx=0;entryDy=0;exitX=0.5;exitY=0;exitDx=0;exitDy=0;" parent="1" source="LtRqbfF2QvWJy3luIIHw-92" target="bpVMH43P0phzhl90AfeX-16" edge="1">
          <mxGeometry width="100" height="100" relative="1" as="geometry">
            <mxPoint x="356.5" y="960" as="sourcePoint" />
            <mxPoint x="456.5" y="860" as="targetPoint" />
          </mxGeometry>
        </mxCell>
        <mxCell id="AfAAXXYZHycmHdELkcjW-14" value="" style="fontSize=12;html=1;endArrow=ERoneToMany;startArrow=ERoneToMany;rounded=0;entryX=0.5;entryY=1;entryDx=0;entryDy=0;exitX=0.594;exitY=-0.014;exitDx=0;exitDy=0;exitPerimeter=0;" parent="1" source="bpVMH43P0phzhl90AfeX-50" target="LtRqbfF2QvWJy3luIIHw-92" edge="1">
          <mxGeometry width="100" height="100" relative="1" as="geometry">
            <mxPoint x="356.5" y="960" as="sourcePoint" />
            <mxPoint x="456.5" y="860" as="targetPoint" />
          </mxGeometry>
        </mxCell>
        <mxCell id="2XpuMKRVut3xF7QWGH-D-2" value="&lt;br&gt;" style="text;html=1;align=center;verticalAlign=middle;resizable=0;points=[];autosize=1;strokeColor=none;fillColor=none;" parent="1" vertex="1">
          <mxGeometry x="1470" y="508" width="20" height="30" as="geometry" />
        </mxCell>
      </root>
    </mxGraphModel>
  </diagram>
  <diagram id="DsTRYHDdKOAyKRs13wa4" name="Page-2">
    <mxGraphModel dx="4145" dy="2050" grid="1" gridSize="10" guides="1" tooltips="1" connect="1" arrows="1" fold="1" page="1" pageScale="1" pageWidth="2339" pageHeight="3300" math="0" shadow="0">
      <root>
        <mxCell id="0" />
        <mxCell id="1" parent="0" />
        <mxCell id="nUNsO94j9xYBqybBgwvV-1" value="" style="edgeStyle=entityRelationEdgeStyle;fontSize=12;html=1;endArrow=ERmandOne;startArrow=ERzeroToMany;rounded=0;" parent="1" edge="1">
          <mxGeometry width="100" height="100" relative="1" as="geometry">
            <mxPoint x="1670" y="1111.5" as="sourcePoint" />
            <mxPoint x="1789" y="991.5" as="targetPoint" />
          </mxGeometry>
        </mxCell>
        <mxCell id="nUNsO94j9xYBqybBgwvV-2" value="" style="edgeStyle=entityRelationEdgeStyle;fontSize=12;html=1;endArrow=ERzeroToMany;endFill=1;startArrow=ERzeroToMany;rounded=0;" parent="1" edge="1">
          <mxGeometry width="100" height="100" relative="1" as="geometry">
            <mxPoint x="1670" y="191.5" as="sourcePoint" />
            <mxPoint x="1790" y="71.5" as="targetPoint" />
          </mxGeometry>
        </mxCell>
        <mxCell id="nUNsO94j9xYBqybBgwvV-3" value="Many Optional to Many Optional&lt;br&gt;" style="text;html=1;align=center;verticalAlign=middle;resizable=0;points=[];autosize=1;strokeColor=none;fillColor=none;" parent="1" vertex="1">
          <mxGeometry x="1770" y="146.5" width="190" height="30" as="geometry" />
        </mxCell>
        <mxCell id="nUNsO94j9xYBqybBgwvV-4" value="&lt;br&gt;&lt;span style=&quot;color: rgb(0, 0, 0); font-family: Helvetica; font-size: 12px; font-style: normal; font-variant-ligatures: normal; font-variant-caps: normal; font-weight: 400; letter-spacing: normal; orphans: 2; text-align: center; text-indent: 0px; text-transform: none; widows: 2; word-spacing: 0px; -webkit-text-stroke-width: 0px; background-color: rgb(251, 251, 251); text-decoration-thickness: initial; text-decoration-style: initial; text-decoration-color: initial; float: none; display: inline !important;&quot;&gt;1.Admin to User&lt;br&gt;&lt;/span&gt;2.Admin to LoginAttempts&lt;br&gt;3.User To LogInAttempts&lt;br&gt;4.user to account" style="rounded=0;whiteSpace=wrap;html=1;" parent="1" vertex="1">
          <mxGeometry x="2050" y="36.5" width="240" height="240" as="geometry" />
        </mxCell>
        <mxCell id="nUNsO94j9xYBqybBgwvV-5" value="" style="edgeStyle=entityRelationEdgeStyle;fontSize=12;html=1;endArrow=ERzeroToOne;startArrow=ERmandOne;rounded=0;" parent="1" edge="1">
          <mxGeometry width="100" height="100" relative="1" as="geometry">
            <mxPoint x="1670" y="511.5" as="sourcePoint" />
            <mxPoint x="1789" y="391.5" as="targetPoint" />
          </mxGeometry>
        </mxCell>
        <mxCell id="nUNsO94j9xYBqybBgwvV-6" value="1 mandatory to many optional" style="text;html=1;align=center;verticalAlign=middle;resizable=0;points=[];autosize=1;strokeColor=none;fillColor=none;" parent="1" vertex="1">
          <mxGeometry x="1775" y="416.5" width="180" height="30" as="geometry" />
        </mxCell>
        <mxCell id="nUNsO94j9xYBqybBgwvV-7" value="1.user to Feedback&lt;br&gt;2.Account to payment" style="whiteSpace=wrap;html=1;aspect=fixed;" parent="1" vertex="1">
          <mxGeometry x="2051" y="331.5" width="240" height="240" as="geometry" />
        </mxCell>
        <mxCell id="nUNsO94j9xYBqybBgwvV-8" value="Many Mandatory to Many Mandatory" style="text;html=1;align=center;verticalAlign=middle;resizable=0;points=[];autosize=1;strokeColor=none;fillColor=none;" parent="1" vertex="1">
          <mxGeometry x="1770" y="726.5" width="220" height="30" as="geometry" />
        </mxCell>
        <mxCell id="nUNsO94j9xYBqybBgwvV-9" value="" style="edgeStyle=entityRelationEdgeStyle;fontSize=12;html=1;endArrow=ERoneToMany;startArrow=ERoneToMany;rounded=0;" parent="1" edge="1">
          <mxGeometry width="100" height="100" relative="1" as="geometry">
            <mxPoint x="1670" y="771.5" as="sourcePoint" />
            <mxPoint x="1790" y="651.5" as="targetPoint" />
          </mxGeometry>
        </mxCell>
        <mxCell id="nUNsO94j9xYBqybBgwvV-10" value="1.account to user" style="whiteSpace=wrap;html=1;aspect=fixed;" parent="1" vertex="1">
          <mxGeometry x="2050" y="621.5" width="240" height="240" as="geometry" />
        </mxCell>
        <mxCell id="nUNsO94j9xYBqybBgwvV-11" value="Many Optional to 1 mandatory" style="text;html=1;align=center;verticalAlign=middle;resizable=0;points=[];autosize=1;strokeColor=none;fillColor=none;" parent="1" vertex="1">
          <mxGeometry x="1810" y="1061.5" width="180" height="30" as="geometry" />
        </mxCell>
        <mxCell id="nUNsO94j9xYBqybBgwvV-12" value="1.Paymnt to Account" style="whiteSpace=wrap;html=1;aspect=fixed;" parent="1" vertex="1">
          <mxGeometry x="2051" y="941.5" width="240" height="240" as="geometry" />
        </mxCell>
        <mxCell id="nUNsO94j9xYBqybBgwvV-13" value="" style="edgeStyle=entityRelationEdgeStyle;fontSize=12;html=1;endArrow=ERmandOne;startArrow=ERzeroToOne;rounded=0;" parent="1" edge="1">
          <mxGeometry width="100" height="100" relative="1" as="geometry">
            <mxPoint x="1610" y="1613.5" as="sourcePoint" />
            <mxPoint x="1710" y="1513.5" as="targetPoint" />
          </mxGeometry>
        </mxCell>
        <mxCell id="nUNsO94j9xYBqybBgwvV-14" value="1.payment to coupen" style="whiteSpace=wrap;html=1;aspect=fixed;" parent="1" vertex="1">
          <mxGeometry x="2060" y="1243.5" width="240" height="240" as="geometry" />
        </mxCell>
        <mxCell id="nUNsO94j9xYBqybBgwvV-15" value="one mandatory to one optional" style="text;html=1;align=center;verticalAlign=middle;resizable=0;points=[];autosize=1;strokeColor=none;fillColor=none;" parent="1" vertex="1">
          <mxGeometry x="1725" y="1351.5" width="190" height="30" as="geometry" />
        </mxCell>
        <mxCell id="nUNsO94j9xYBqybBgwvV-16" value="" style="edgeStyle=entityRelationEdgeStyle;fontSize=12;html=1;endArrow=ERzeroToOne;startArrow=ERmandOne;rounded=0;" parent="1" edge="1">
          <mxGeometry width="100" height="100" relative="1" as="geometry">
            <mxPoint x="1650" y="1393.5" as="sourcePoint" />
            <mxPoint x="1750" y="1293.5" as="targetPoint" />
            <Array as="points">
              <mxPoint x="1710" y="1323.5" />
            </Array>
          </mxGeometry>
        </mxCell>
        <mxCell id="nUNsO94j9xYBqybBgwvV-17" value="one optional to one mandatory" style="text;html=1;align=center;verticalAlign=middle;resizable=0;points=[];autosize=1;strokeColor=none;fillColor=none;" parent="1" vertex="1">
          <mxGeometry x="1735" y="1553.5" width="190" height="30" as="geometry" />
        </mxCell>
        <mxCell id="nUNsO94j9xYBqybBgwvV-18" value="1.coupen to payment" style="whiteSpace=wrap;html=1;aspect=fixed;" parent="1" vertex="1">
          <mxGeometry x="2060" y="1523.5" width="240" height="240" as="geometry" />
        </mxCell>
      </root>
    </mxGraphModel>
  </diagram>
</mxfile>
